<svg width="0" height="0" class="hidden">
  <symbol xmlns="http://www.w3.org/2000/svg" viewBox="0 0 138 42" id="logo">
    <path d="M45.8083 17.2156H48.7137V24.0252H57.8537V17.2156H60.7591V33.256H57.8537V26.5372H48.7137V33.256H45.8083V17.2156ZM82.7212 30.7137V36.9786H79.9974V33.256H66.5901V36.9786H63.836V30.7137H64.6834C65.7124 30.6532 66.4186 29.9268 66.8019 28.5347C67.1853 27.1425 67.4476 25.1753 67.5888 22.633L67.8309 17.2156H80.2698V30.7137H82.7212ZM70.2521 22.8449C70.1714 24.8625 69.9999 26.5372 69.7376 27.8688C69.4955 29.1803 69.0415 30.1286 68.3757 30.7137H77.3643V19.7579H70.4034L70.2521 22.8449ZM101.003 25.3266C101.003 25.5485 100.983 25.8411 100.943 26.2043H87.9287C88.1103 27.6166 88.7256 28.7566 89.7748 29.6242C90.8442 30.4716 92.1657 30.8953 93.7395 30.8953C95.6563 30.8953 97.1998 30.2497 98.37 28.9584L99.9741 30.8348C99.2477 31.6822 98.3398 32.3279 97.2502 32.7717C96.1809 33.2156 94.9804 33.4376 93.6487 33.4376C91.9539 33.4376 90.4507 33.0946 89.1393 32.4086C87.8278 31.7024 86.8089 30.7238 86.0825 29.4729C85.3763 28.2219 85.0232 26.8096 85.0232 25.2358C85.0232 23.6822 85.3662 22.2799 86.0522 21.029C86.7584 19.778 87.7168 18.8096 88.9274 18.1236C90.1582 17.4174 91.5403 17.0643 93.0737 17.0643C94.6071 17.0643 95.969 17.4174 97.1594 18.1236C98.37 18.8096 99.3082 19.778 99.9741 21.029C100.66 22.2799 101.003 23.7125 101.003 25.3266ZM93.0737 19.5157C91.6815 19.5157 90.5113 19.9395 89.563 20.7869C88.6348 21.6343 88.0901 22.744 87.9287 24.116H98.2187C98.0573 22.7642 97.5024 21.6645 96.5541 20.8171C95.626 19.9495 94.4659 19.5157 93.0737 19.5157ZM112.502 33.4376C110.867 33.4376 109.404 33.0845 108.113 32.3783C106.842 31.6721 105.843 30.7036 105.117 29.4729C104.391 28.2219 104.027 26.8096 104.027 25.2358C104.027 23.662 104.391 22.2598 105.117 21.029C105.843 19.778 106.842 18.8096 108.113 18.1236C109.404 17.4174 110.867 17.0643 112.502 17.0643C113.954 17.0643 115.246 17.3569 116.375 17.942C117.526 18.5271 118.413 19.3745 119.039 20.4842L116.829 21.9067C116.325 21.14 115.7 20.5649 114.953 20.1816C114.207 19.7982 113.379 19.6065 112.471 19.6065C111.422 19.6065 110.474 19.8386 109.626 20.3026C108.799 20.7667 108.143 21.4325 107.659 22.3001C107.195 23.1475 106.963 24.1261 106.963 25.2358C106.963 26.3657 107.195 27.3644 107.659 28.232C108.143 29.0794 108.799 29.7352 109.626 30.1992C110.474 30.6633 111.422 30.8953 112.471 30.8953C113.379 30.8953 114.207 30.7036 114.953 30.3203C115.7 29.9369 116.325 29.3619 116.829 28.5952L119.039 29.9874C118.413 31.0971 117.526 31.9546 116.375 32.5599C115.246 33.145 113.954 33.4376 112.502 33.4376ZM128.52 17.0643C130.74 17.0643 132.435 17.6091 133.605 18.6986C134.795 19.7881 135.391 21.4123 135.391 23.5712V33.256H132.636V31.1374C132.152 31.884 131.456 32.459 130.548 32.8625C129.66 33.2459 128.601 33.4376 127.37 33.4376C125.575 33.4376 124.132 33.0038 123.042 32.1362C121.973 31.2686 121.438 30.1286 121.438 28.7163C121.438 27.3039 121.953 26.174 122.982 25.3266C124.011 24.459 125.645 24.0252 127.885 24.0252H132.485V23.4502C132.485 22.1992 132.122 21.2408 131.396 20.575C130.669 19.9092 129.6 19.5763 128.188 19.5763C127.239 19.5763 126.311 19.7377 125.403 20.0605C124.495 20.3632 123.729 20.7768 123.103 21.3014L121.892 19.1223C122.72 18.4565 123.708 17.9521 124.858 17.6091C126.008 17.2459 127.229 17.0643 128.52 17.0643ZM127.855 31.198C128.964 31.198 129.923 30.9559 130.73 30.4716C131.537 29.9672 132.122 29.261 132.485 28.3531V26.1135H128.006C125.544 26.1135 124.314 26.9407 124.314 28.5952C124.314 29.4023 124.626 30.0378 125.252 30.5019C125.877 30.9659 126.745 31.198 127.855 31.198Z" fill="#1F2324"></path>
    <path d="M19.7421 0L0 33.5751H8.99362L18.7915 26.0813V29.9016L43.5057 13.6651L24.4217 21.3058V18.2936L13.3807 23.2895L19.7421 12.4162L21.9357 18.2936L25.5916 16.6039V19.4691L30.1981 17.7059L19.7421 0Z" fill="#1648A8"></path>
    <path d="M27.4927 33.5751L25.0798 27.1098L32.7572 22.114L39.4842 33.5751H27.4927Z" fill="#1648A8"></path>
  </symbol>
  <symbol  xmlns="http://www.w3.org/2000/svg" viewBox="0 0 24 24" id="phone">
    <path d="M17.7071 13.7071L20.3552 16.3552C20.7113 16.7113 20.7113 17.2887 20.3552 17.6448C18.43 19.57 15.3821 19.7866 13.204 18.153L11.6286 16.9714C9.88504 15.6638 8.33622 14.115 7.02857 12.3714L5.84701 10.796C4.21341 8.61788 4.43001 5.56999 6.35523 3.64477C6.71133 3.28867 7.28867 3.28867 7.64477 3.64477L10.2929 6.29289C10.6834 6.68342 10.6834 7.31658 10.2929 7.70711L9.27175 8.72825C9.10946 8.89054 9.06923 9.13846 9.17187 9.34373C10.3585 11.7171 12.2829 13.6415 14.6563 14.8281C14.8615 14.9308 15.1095 14.8905 15.2717 14.7283L16.2929 13.7071C16.6834 13.3166 17.3166 13.3166 17.7071 13.7071Z"></path>
    <path d="M20.3552 16.3552L19.931 16.7795L19.931 16.7795L20.3552 16.3552ZM17.7071 13.7071L18.1314 13.2828L17.7071 13.7071ZM10.2929 6.29289L10.7172 5.86863L10.7172 5.86863L10.2929 6.29289ZM7.64477 3.64477L8.06903 3.2205V3.2205L7.64477 3.64477ZM5.84701 10.796L6.32701 10.436L5.84701 10.796ZM7.02857 12.3714L6.54857 12.7314L7.02857 12.3714ZM11.6286 16.9714L11.9886 16.4914V16.4914L11.6286 16.9714ZM13.204 18.153L12.844 18.633V18.633L13.204 18.153ZM14.6563 14.8281L14.9246 14.2915L14.9246 14.2915L14.6563 14.8281ZM9.17187 9.34373L8.63521 9.61206V9.61206L9.17187 9.34373ZM20.3552 17.6448L19.931 17.2205L20.3552 17.6448ZM6.35523 3.64477L6.7795 4.06903V4.06903L6.35523 3.64477ZM20.7795 15.931L18.1314 13.2828L17.2828 14.1314L19.931 16.7795L20.7795 15.931ZM10.7172 5.86863L8.06903 3.2205L7.2205 4.06903L9.86863 6.71716L10.7172 5.86863ZM9.69601 9.15252L10.7172 8.13137L9.86863 7.28284L8.84748 8.30399L9.69601 9.15252ZM15.8686 13.2828L14.8475 14.304L15.696 15.1525L16.7172 14.1314L15.8686 13.2828ZM5.36701 11.156L6.54857 12.7314L7.50857 12.0114L6.32701 10.436L5.36701 11.156ZM11.2686 17.4514L12.844 18.633L13.564 17.673L11.9886 16.4914L11.2686 17.4514ZM6.54857 12.7314C7.89033 14.5204 9.47956 16.1097 11.2686 17.4514L11.9886 16.4914C10.2905 15.2179 8.78211 13.7095 7.50857 12.0114L6.54857 12.7314ZM14.9246 14.2915C12.6674 13.1629 10.8371 11.3326 9.70852 9.0754L8.63521 9.61206C9.87993 12.1015 11.8985 14.1201 14.3879 15.3648L14.9246 14.2915ZM14.8475 14.304C14.8678 14.2837 14.8989 14.2786 14.9246 14.2915L14.3879 15.3648C14.8242 15.5829 15.3511 15.4974 15.696 15.1525L14.8475 14.304ZM8.84748 8.30399C8.50258 8.64889 8.41708 9.17579 8.63521 9.61206L9.70852 9.07541C9.72138 9.10112 9.71634 9.13219 9.69601 9.15252L8.84748 8.30399ZM9.86863 6.71716C10.0248 6.87337 10.0248 7.12663 9.86863 7.28284L10.7172 8.13137C11.342 7.50653 11.342 6.49347 10.7172 5.86863L9.86863 6.71716ZM18.1314 13.2828C17.5065 12.658 16.4935 12.658 15.8686 13.2828L16.7172 14.1314C16.8734 13.9752 17.1266 13.9752 17.2828 14.1314L18.1314 13.2828ZM20.7795 18.069C21.3699 17.4786 21.3699 16.5214 20.7795 15.931L19.931 16.7795C20.0527 16.9013 20.0527 17.0987 19.931 17.2205L20.7795 18.069ZM19.931 17.2205C18.2169 18.9346 15.5033 19.1274 13.564 17.673L12.844 18.633C15.261 20.4457 18.6431 20.2054 20.7795 18.069L19.931 17.2205ZM5.93097 3.2205C3.79461 5.35686 3.55425 8.739 5.36701 11.156L6.32701 10.436C4.87256 8.49675 5.06541 5.78312 6.7795 4.06903L5.93097 3.2205ZM6.7795 4.06903C6.90128 3.94725 7.09872 3.94725 7.2205 4.06903L8.06903 3.2205C7.47862 2.63009 6.52138 2.63009 5.93097 3.2205L6.7795 4.06903Z"></path>
  </symbol>
  <symbol  xmlns="http://www.w3.org/2000/svg" viewBox="0 0 24 24" id="bag">
    <path d="M5.19001 6.38C5.00001 6.38 4.8 6.3 4.66 6.16C4.37 5.87 4.37 5.39 4.66 5.1L8.29 1.47C8.58001 1.18 9.06001 1.18 9.35001 1.47C9.64001 1.76 9.64001 2.24 9.35001 2.53L5.72 6.16C5.57 6.3 5.38001 6.38 5.19001 6.38Z"></path>
    <path d="M18.81 6.38C18.62 6.38 18.43 6.31 18.28 6.16L14.65 2.53C14.36 2.24 14.36 1.76 14.65 1.47C14.94 1.18 15.42 1.18 15.71 1.47L19.34 5.1C19.63 5.39 19.63 5.87 19.34 6.16C19.2 6.3 19 6.38 18.81 6.38Z"></path>
    <path d="M20.21 10.6C20.14 10.6 20.07 10.6 20 10.6H19.77H4C3.3 10.61 2.5 10.61 1.92 10.03C1.46 9.58001 1.25 8.88001 1.25 7.85001C1.25 5.10001 3.26 5.10001 4.22 5.10001H19.78C20.74 5.10001 22.75 5.10001 22.75 7.85001C22.75 8.89001 22.54 9.58001 22.08 10.03C21.56 10.55 20.86 10.6 20.21 10.6ZM4.22 9.10001H20.01C20.46 9.11001 20.88 9.11001 21.02 8.97001C21.09 8.90001 21.24 8.66001 21.24 7.85001C21.24 6.72001 20.96 6.60001 19.77 6.60001H4.22C3.03 6.60001 2.75 6.72001 2.75 7.85001C2.75 8.66001 2.91 8.90001 2.97 8.97001C3.11 9.10001 3.54 9.10001 3.98 9.10001H4.22Z" ></path>
    <path d="M9.76001 18.3C9.35001 18.3 9.01001 17.96 9.01001 17.55V14C9.01001 13.59 9.35001 13.25 9.76001 13.25C10.17 13.25 10.51 13.59 10.51 14V17.55C10.51 17.97 10.17 18.3 9.76001 18.3Z"></path>
    <path d="M14.36 18.3C13.95 18.3 13.61 17.96 13.61 17.55V14C13.61 13.59 13.95 13.25 14.36 13.25C14.77 13.25 15.11 13.59 15.11 14V17.55C15.11 17.97 14.77 18.3 14.36 18.3Z"></path>
    <path d="M14.89 22.75H8.86C5.28 22.75 4.48 20.62 4.17 18.77L2.76 10.12C2.69 9.71 2.97 9.33 3.38 9.26C3.79 9.19 4.17 9.47 4.24 9.88L5.65 18.52C5.94 20.29 6.54 21.25 8.86 21.25H14.89C17.46 21.25 17.75 20.35 18.08 18.61L19.76 9.86C19.84 9.45 20.23 9.18 20.64 9.27C21.05 9.35 21.31 9.74 21.23 10.15L19.55 18.9C19.16 20.93 18.51 22.75 14.89 22.75Z"></path>
  </symbol>
  <symbol  xmlns="http://www.w3.org/2000/svg" viewBox="0 0 20 20" id="telegram">
    <path d="M10 20C15.5142 20 20 15.5142 20 10C20 4.48583 15.5142 0 10 0C4.48583 0 0 4.48583 0 10C0 15.5142 4.48583 20 10 20ZM10 1.25C14.825 1.25 18.75 5.175 18.75 10C18.75 14.825 14.825 18.75 10 18.75C5.175 18.75 1.25 14.825 1.25 10C1.25 5.175 5.175 1.25 10 1.25Z" 
    
    ></path>
    <path d="M6.57997 11.7958L7.88664 11.2283L7.51997 11.5958C7.40247 11.7133 7.33664 11.8725 7.33664 12.0375V14.4833C7.33664 15.0433 8.0133 15.315 8.40331 14.925L9.71497 13.6133L12.5733 15.0425C12.9433 15.2275 13.3908 15.0083 13.4675 14.595L15.0983 5.62749C15.1841 5.14499 14.7091 4.75499 14.255 4.93333L3.6583 9.08083C3.1833 9.26583 3.11997 9.91583 3.54997 10.19L5.99497 11.75C6.16997 11.8617 6.39081 11.8792 6.57997 11.7958ZM13.6683 6.50666L12.3875 13.5525L9.87081 12.295C9.62747 12.1733 9.33747 12.2242 9.14997 12.4125L8.58664 12.9758V12.2983L11.0925 9.7925C11.5783 9.30666 11.0316 8.505 10.4016 8.7775L6.38747 10.5192L5.25914 9.79916L13.6683 6.50666Z"></path>
  </symbol>
  <symbol  xmlns="http://www.w3.org/2000/svg" viewBox="0 0 20 20" id="user">
    <path d="M4.16669 17.5C4.16669 14.2783 6.77836 11.6667 10 11.6667C13.2217 11.6667 15.8334 14.2783 15.8334 17.5" stroke-width="2" stroke-linecap="round" stroke-linejoin="round"></path>
    <path d="M10 9.16667C11.841 9.16667 13.3334 7.67428 13.3334 5.83333C13.3334 3.99238 11.841 2.5 10 2.5C8.15907 2.5 6.66669 3.99238 6.66669 5.83333C6.66669 7.67428 8.15907 9.16667 10 9.16667Z"  stroke-width="2" stroke-linecap="round" stroke-linejoin="round"></path>
  </symbol>
  <symbol  xmlns="http://www.w3.org/2000/svg" viewBox="0 0 20 20" id="whatsapp">
    <path d="M5.78329 17.1917C7.01663 17.9167 8.45829 18.3333 9.99996 18.3333C14.6 18.3333 18.3333 14.6 18.3333 10C18.3333 5.40001 14.6 1.66667 9.99996 1.66667C5.39996 1.66667 1.66663 5.40001 1.66663 10C1.66663 11.5167 2.07498 12.9417 2.78332 14.1667L1.66663 18.3333L5.78329 17.1917Z" stroke-width="1.5" stroke-miterlimit="10" stroke-linecap="round" stroke-linejoin="round"></path>
    <path d="M14.1667 12.6417C14.1667 12.7917 14.1334 12.95 14.0584 13.1C13.9834 13.25 13.8917 13.3917 13.7751 13.525C13.5667 13.75 13.3417 13.9167 13.0917 14.0167C12.8417 14.125 12.5667 14.175 12.275 14.175C11.85 14.175 11.3917 14.075 10.9167 13.8667C10.4334 13.6584 9.95838 13.3833 9.48338 13.0417C9.00004 12.6917 8.55003 12.3 8.1167 11.875C7.68337 11.4417 7.30006 10.9833 6.95006 10.5083C6.6084 10.0333 6.33336 9.55833 6.13336 9.08333C5.93336 8.60833 5.83337 8.15001 5.83337 7.71668C5.83337 7.43335 5.88337 7.15835 5.98337 6.90835C6.08337 6.65001 6.24172 6.41668 6.46672 6.20835C6.73338 5.94168 7.02503 5.81668 7.33336 5.81668C7.45003 5.81668 7.56673 5.84168 7.67506 5.89168C7.78339 5.94168 7.88336 6.01668 7.95836 6.12501L8.92506 7.49166C9.00006 7.6 9.05835 7.69167 9.09168 7.78334C9.13335 7.875 9.15002 7.95833 9.15002 8.04167C9.15002 8.14167 9.1167 8.24168 9.05837 8.34168C9.00004 8.44168 8.92506 8.54167 8.82506 8.64167L8.50839 8.975C8.45839 9.025 8.44171 9.07501 8.44171 9.14167C8.44171 9.17501 8.45006 9.20834 8.45839 9.24167C8.47506 9.275 8.48338 9.30001 8.49171 9.32501C8.56671 9.46667 8.70002 9.64166 8.88335 9.85833C9.07502 10.075 9.27505 10.3 9.49172 10.5167C9.71672 10.7417 9.93338 10.9417 10.1584 11.1333C10.375 11.3167 10.5584 11.4417 10.7001 11.5167C10.7251 11.525 10.75 11.5417 10.775 11.55C10.8084 11.5667 10.8417 11.5667 10.8834 11.5667C10.9584 11.5667 11.0084 11.5417 11.0584 11.4917L11.3751 11.175C11.4834 11.0667 11.5834 10.9917 11.675 10.9417C11.775 10.8833 11.8667 10.85 11.975 10.85C12.0584 10.85 12.1417 10.8667 12.2334 10.9083C12.325 10.95 12.4251 11 12.5251 11.075L13.9084 12.0583C14.0167 12.1333 14.0917 12.225 14.1417 12.325C14.1417 12.425 14.1667 12.525 14.1667 12.6417Z"stroke-width="1.5" stroke-miterlimit="10"></path>
  </symbol>
</svg>